<svg width="21" height="22" viewBox="0 0 21 22" fill="none" xmlns="http://www.w3.org/2000/svg">
<path d="M11.5 10C12.8807 10 14 8.88071 14 7.5C14 6.11929 12.8807 5 11.5 5C10.1193 5 9 6.11929 9 7.5C9 8.88071 10.1193 10 11.5 10Z" stroke="#f5f5f7" stroke-width="2" stroke-linecap="round" stroke-linejoin="round"/>
<path d="M11.5 1C10.1072 0.999167 8.75099 1.44573 7.63117 2.2739C6.51134 3.10207 5.68714 4.26804 5.28002 5.6C4.18002 8.73 4.50002 9.5 2.10002 11.68C1.62178 12.0721 1.27639 12.6024 1.11113 13.1983C0.945861 13.7942 0.968795 14.4266 1.17679 15.009C1.38478 15.5914 1.76767 16.0953 2.27305 16.4517C2.77843 16.8081 3.38161 16.9996 4.00002 17C8.00002 17 12.4 15.2 15.4 12.7C16.4914 11.8815 17.2976 10.7403 17.7044 9.43809C18.1111 8.13591 18.0979 6.73875 17.6665 5.44452C17.235 4.15029 16.4074 3.02461 15.3006 2.22693C14.1939 1.42924 12.8643 1 11.5 1Z" stroke="#f5f5f7" stroke-width="2" stroke-linecap="round" stroke-linejoin="round"/>
<path d="M17.5 5L19.69 9.5C19.8975 10.1463 20.0021 10.8212 20 11.5C20.0008 12.5092 19.7662 13.5047 19.3149 14.4074C18.8635 15.3101 18.2079 16.0951 17.4 16.7C14.4 19.2 10 21 6.00002 21C5.44327 20.9992 4.89772 20.8436 4.42441 20.5504C3.9511 20.2572 3.56871 19.8381 3.32002 19.34L1.40002 15.5" stroke="#f5f5f7" stroke-width="2" stroke-linecap="round" stroke-linejoin="round"/>
</svg>
