<svg width="209" height="240" viewBox="0 0 209 240" fill="none" xmlns="http://www.w3.org/2000/svg">
<path d="M104 72C88.0412 72 7.99988 40.207 7.99988 120" stroke="#f5f5f7" stroke-width="15.9988" stroke-linecap="round" stroke-linejoin="round"/>
<path d="M7.99988 120C7.99988 199.793 56.0413 232 71.9999 232C87.9585 232 88.0412 216 104 216" stroke="#f5f5f7" stroke-width="15.9988" stroke-linecap="round" stroke-linejoin="round"/>
<path d="M104 72C119.958 72 200 40.207 200 120" stroke="#f5f5f7" stroke-width="15.9988" stroke-linecap="round" stroke-linejoin="round"/>
<path d="M200.083 119.876C200.083 199.669 151.958 232 136 232C120.041 232 119.958 216 104 216" stroke="#f5f5f7" stroke-width="15.9988" stroke-linecap="round" stroke-linejoin="round"/>
<path d="M104 72C104 24.1242 71.9999 8 71.9999 8" stroke="#f5f5f7" stroke-width="15.9988" stroke-linecap="round" stroke-linejoin="round"/>
<path d="M104 72C104 8.16555 136.041 23.9586 152 8" stroke="#f5f5f7" stroke-width="15.9988" stroke-linecap="round" stroke-linejoin="round"/>
<path d="M104 72C151.876 56.0414 167.958 39.9172 152 8" stroke="#f5f5f7" stroke-width="15.9988" stroke-linecap="round" stroke-linejoin="round"/>
</svg>
