<svg width="216" height="216" viewBox="0 0 216 216" fill="none" xmlns="http://www.w3.org/2000/svg">
<path d="M208 48H179.31L205.66 21.66C206.403 20.9167 206.993 20.0343 207.395 19.0632C207.797 18.092 208.004 17.0512 208.004 16C208.004 14.9488 207.797 13.908 207.395 12.9368C206.993 11.9657 206.403 11.0833 205.66 10.34C204.917 9.59672 204.034 9.00711 203.063 8.60485C202.092 8.20259 201.051 7.99555 200 7.99555C198.949 7.99555 197.908 8.20259 196.937 8.60485C195.966 9.00711 195.083 9.59672 194.34 10.34L168 36.69V8C168 5.87827 167.157 3.84344 165.657 2.34315C164.157 0.842854 162.122 0 160 0C157.878 0 155.843 0.842854 154.343 2.34315C152.843 3.84344 152 5.87827 152 8V40.57C139.81 33.5328 125.64 30.7105 111.684 32.54C97.728 34.3695 84.7644 40.7487 74.8 50.69C34.7 90.08 4.55003 183.77 1.61003 193.14C0.223861 196.115 -0.213594 199.445 0.356997 202.678C0.927589 205.91 2.47861 208.889 4.79971 211.21C7.1208 213.531 10.0996 215.082 13.3322 215.653C16.5647 216.224 19.8946 215.786 22.87 214.4C32.24 211.46 126.05 181.27 165.34 141.19C175.274 131.223 181.646 118.259 183.47 104.305C185.294 90.3517 182.468 76.1858 175.43 64H208C210.122 64 212.157 63.1571 213.657 61.6569C215.157 60.1566 216 58.1217 216 56C216 53.8783 215.157 51.8434 213.657 50.3431C212.157 48.8429 210.122 48 208 48ZM153.88 130C144.94 139.12 132.63 147.8 119.03 155.73L93.65 130.34C92.9068 129.597 92.0243 129.007 91.0532 128.605C90.0821 128.203 89.0412 127.996 87.99 127.996C86.9389 127.996 85.898 128.203 84.9269 128.605C83.9557 129.007 83.0733 129.597 82.33 130.34C81.5868 131.083 80.9971 131.966 80.5949 132.937C80.1926 133.908 79.9856 134.949 79.9856 136C79.9856 137.051 80.1926 138.092 80.5949 139.063C80.9971 140.034 81.5868 140.917 82.33 141.66L104.42 163.75C63.55 184.94 18.1 199.17 17.42 199.38C16.9276 199.54 16.452 199.747 16 200C16.2416 199.55 16.4392 199.078 16.59 198.59C16.88 197.66 44.59 109.01 80.59 67.92L114.36 101.69C115.861 103.191 117.897 104.034 120.02 104.034C122.143 104.034 124.179 103.191 125.68 101.69C127.181 100.189 128.024 98.1529 128.024 96.03C128.024 93.9071 127.181 91.8711 125.68 90.37L92.18 56.88C101.995 49.8967 114.077 46.859 126.027 48.3698C137.978 49.8805 148.924 55.8293 156.692 65.0355C164.46 74.2416 168.483 86.032 167.962 98.0664C167.441 110.101 162.415 121.5 153.88 130Z" fill="#f5f5f7"/>
</svg>
