<svg width="184" height="232" viewBox="0 0 184 232" fill="none" xmlns="http://www.w3.org/2000/svg">
<path d="M154 45.34C135.06 17 111.88 0 92 0C72.12 0 48.94 17 30 45.34C10.94 74 0 108.46 0 140C0 164.4 9.69283 187.8 26.9462 205.054C44.1995 222.307 67.6001 232 92 232C116.4 232 139.8 222.307 157.054 205.054C174.307 187.8 184 164.4 184 140C184 108.46 173.06 74 154 45.34ZM92 208C73.971 207.981 56.6857 200.811 43.9372 188.063C31.1887 175.314 24.0185 158.029 24 140C24 78.88 70.19 24 92 24C113.81 24 160 78.88 160 140C159.981 158.029 152.811 175.314 140.063 188.063C127.314 200.811 110.029 207.981 92 208Z" fill="#f5f5f7"/>
</svg>
