<svg width="22" height="22" viewBox="0 0 22 22" fill="none" xmlns="http://www.w3.org/2000/svg">
<path d="M20.71 7.71017C21.96 6.46017 21.39 5.00017 20.71 4.29017L17.71 1.29017C16.45 0.0401732 15 0.610173 14.29 1.29017L12.59 3.00017H9.99999C8.09999 3.00017 6.99999 4.00017 6.43999 5.15017L1.99999 9.59017V13.5902L1.28999 14.2902C0.0399901 15.5502 0.60999 17.0002 1.28999 17.7102L4.28999 20.7102C4.82999 21.2502 5.40999 21.4502 5.95999 21.4502C6.66999 21.4502 7.31999 21.1002 7.70999 20.7102L10.41 18.0002H14C15.7 18.0002 16.56 16.9402 16.87 15.9002C18 15.6002 18.62 14.7402 18.87 13.9002C20.42 13.5002 21 12.0302 21 11.0002V8.00017H20.41L20.71 7.71017ZM19 11.0002C19 11.4502 18.81 12.0002 18 12.0002H17V13.0002C17 13.4502 16.81 14.0002 16 14.0002H15V15.0002C15 15.4502 14.81 16.0002 14 16.0002H9.58999L6.30999 19.2802C5.99999 19.5702 5.81999 19.4002 5.70999 19.2902L2.71999 16.3102C2.42999 16.0002 2.59999 15.8202 2.70999 15.7102L3.99999 14.4102V10.4102L5.99999 8.41017V10.0002C5.99999 11.2102 6.79999 13.0002 8.99999 13.0002C11.2 13.0002 12 11.2102 12 10.0002H19V11.0002ZM19.29 6.29017L17.59 8.00017H9.99999V10.0002C9.99999 10.4502 9.80999 11.0002 8.99999 11.0002C8.18999 11.0002 7.99999 10.4502 7.99999 10.0002V7.00017C7.99999 6.54017 8.16999 5.00017 9.99999 5.00017H13.41L15.69 2.72017C16 2.43017 16.18 2.60017 16.29 2.71017L19.28 5.69017C19.57 6.00017 19.4 6.18017 19.29 6.29017Z" fill="#6e6e73"/>
</svg>
