<svg width="16" height="12" viewBox="0 0 16 12" fill="none" xmlns="http://www.w3.org/2000/svg">
<path d="M1.99999 3.49994C1.99992 2.91982 2.14405 2.34877 2.41942 1.83816C2.69479 1.32756 3.09276 0.893404 3.57754 0.574757C4.06232 0.25611 4.61871 0.0629611 5.19665 0.0126823C5.7746 -0.0375964 6.35598 0.0565721 6.8885 0.286718C7.42102 0.516864 7.88799 0.875769 8.24739 1.33115C8.6068 1.78654 8.84738 2.32412 8.94749 2.89554C9.04759 3.46697 9.0041 4.05431 8.8209 4.60476C8.63771 5.1552 8.32056 5.65147 7.89799 6.04894C8.6948 6.4356 9.38662 7.0087 9.91478 7.71965C10.4429 8.4306 10.7919 9.25843 10.932 10.1329C10.9474 10.2303 10.9435 10.3296 10.9206 10.4255C10.8976 10.5213 10.8559 10.6116 10.798 10.6913C10.7401 10.771 10.6671 10.8386 10.5831 10.8901C10.4991 10.9416 10.4058 10.976 10.3085 10.9914C10.2112 11.0069 10.1118 11.003 10.016 10.98C9.92017 10.957 9.82983 10.9154 9.75011 10.8575C9.67039 10.7996 9.60286 10.7266 9.55136 10.6426C9.49987 10.5586 9.46542 10.4653 9.44999 10.3679C9.3 9.42825 8.81992 8.57281 8.09596 7.95524C7.372 7.33767 6.45158 6.99842 5.49999 6.99842C4.5484 6.99842 3.62799 7.33767 2.90402 7.95524C2.18006 8.57281 1.69998 9.42825 1.54999 10.3679C1.5345 10.4653 1.49998 10.5586 1.44843 10.6425C1.39687 10.7265 1.32928 10.7995 1.24952 10.8573C1.16975 10.9152 1.07937 10.9568 0.983542 10.9797C0.88771 11.0026 0.788301 11.0064 0.690991 10.9909C0.593682 10.9754 0.500377 10.9409 0.416405 10.8894C0.332433 10.8378 0.259438 10.7702 0.201587 10.6905C0.143736 10.6107 0.102162 10.5203 0.07924 10.4245C0.0563177 10.3287 0.0524954 10.2293 0.0679914 10.1319C0.208326 9.25776 0.557366 8.4303 1.08552 7.71971C1.61368 7.00911 2.30538 6.43634 3.10199 6.04994C2.75366 5.72287 2.47614 5.32782 2.28659 4.8892C2.09704 4.45059 1.9995 3.97776 1.99999 3.49994ZM11 1.99994C11.581 2.00035 12.1494 2.16941 12.6362 2.48659C13.123 2.80378 13.5072 3.25545 13.7423 3.78679C13.9774 4.31813 14.0532 4.90628 13.9604 5.47984C13.8677 6.05341 13.6105 6.58773 13.22 7.01794C13.8287 7.32013 14.3695 7.74298 14.8096 8.26079C15.2497 8.77859 15.5799 9.38052 15.78 10.0299C15.8196 10.156 15.8252 10.2903 15.7962 10.4192C15.7671 10.5482 15.7045 10.6671 15.6146 10.764C15.5247 10.8609 15.4108 10.9323 15.2844 10.9709C15.158 11.0095 15.0237 11.014 14.895 10.9839C14.7664 10.954 14.648 10.8907 14.5516 10.8005C14.4553 10.7103 14.3843 10.5963 14.346 10.4699C14.1668 9.89015 13.8402 9.36679 13.3981 8.95103C12.956 8.53526 12.4137 8.24132 11.824 8.09794C11.6602 8.05841 11.5145 7.9649 11.4104 7.83247C11.3063 7.70004 11.2498 7.53641 11.25 7.36794V7.01594C11.2499 6.87631 11.2888 6.73943 11.3623 6.6207C11.4358 6.50198 11.541 6.40613 11.666 6.34394C11.9692 6.1937 12.2126 5.94537 12.3568 5.63929C12.501 5.33321 12.5375 4.98737 12.4604 4.65793C12.3833 4.32849 12.197 4.03481 11.9319 3.82459C11.6667 3.61437 11.3383 3.49996 11 3.49994C10.8011 3.49994 10.6103 3.42093 10.4697 3.28027C10.329 3.13962 10.25 2.94886 10.25 2.74994C10.25 2.55103 10.329 2.36027 10.4697 2.21961C10.6103 2.07896 10.8011 1.99994 11 1.99994ZM5.49999 1.49994C5.23365 1.49392 4.96879 1.54117 4.72097 1.63891C4.47314 1.73666 4.24734 1.88293 4.05682 2.06915C3.8663 2.25536 3.7149 2.47776 3.61152 2.72329C3.50813 2.96882 3.45484 3.23252 3.45478 3.49893C3.45471 3.76534 3.50787 4.02907 3.61113 4.27465C3.71439 4.52023 3.86568 4.74271 4.0561 4.92902C4.24653 5.11533 4.47226 5.26171 4.72004 5.35958C4.96782 5.45745 5.23265 5.50483 5.49899 5.49894C6.02155 5.48739 6.51883 5.27172 6.88436 4.8981C7.2499 4.52449 7.45465 4.02262 7.45478 3.49993C7.45491 2.97724 7.25041 2.47527 6.88506 2.10147C6.51971 1.72768 6.02255 1.51176 5.49999 1.49994Z" fill="#6e6e73"/>
</svg>
